<svg width="32" height="32" viewBox="0 0 32 32" fill="none" xmlns="http://www.w3.org/2000/svg">
<path d="M24.0026 14.666H17.3359V7.99935H24.0026M22.0026 22.666C21.4722 22.666 20.9635 22.4553 20.5884 22.0802C20.2133 21.7052 20.0026 21.1964 20.0026 20.666C20.0026 20.1356 20.2133 19.6269 20.5884 19.2518C20.9635 18.8767 21.4722 18.666 22.0026 18.666C22.533 18.666 23.0417 18.8767 23.4168 19.2518C23.7919 19.6269 24.0026 20.1356 24.0026 20.666C24.0026 21.1964 23.7919 21.7052 23.4168 22.0802C23.0417 22.4553 22.533 22.666 22.0026 22.666ZM14.6693 14.666H8.0026V7.99935H14.6693M10.0026 22.666C9.47217 22.666 8.96346 22.4553 8.58839 22.0802C8.21332 21.7052 8.0026 21.1964 8.0026 20.666C8.0026 20.1356 8.21332 19.6269 8.58839 19.2518C8.96346 18.8767 9.47217 18.666 10.0026 18.666C10.533 18.666 11.0417 18.8767 11.4168 19.2518C11.7919 19.6269 12.0026 20.1356 12.0026 20.666C12.0026 21.1964 11.7919 21.7052 11.4168 22.0802C11.0417 22.4553 10.533 22.666 10.0026 22.666ZM16.0026 2.66602C10.1093 2.66602 5.33594 3.33268 5.33594 7.99935V20.666C5.33594 21.9037 5.8276 23.0907 6.70277 23.9658C7.57794 24.841 8.76493 25.3327 10.0026 25.3327L8.0026 27.3327V27.9993H24.0026V27.3327L22.0026 25.3327C23.2403 25.3327 24.4273 24.841 25.3024 23.9658C26.1776 23.0907 26.6693 21.9037 26.6693 20.666V7.99935C26.6693 3.33268 21.8959 2.66602 16.0026 2.66602Z" fill="#111111"/>
</svg>
