<svg width="32" height="32" viewBox="0 0 32 32" fill="none" xmlns="http://www.w3.org/2000/svg">
<path d="M16.7762 31.0139L16.7922 31.0112C16.8029 31.013 16.81 31.021 16.8136 31.0352L16.8362 31.6046L16.8309 31.6272L16.8149 31.6486L16.6762 31.7472L16.6602 31.7526L16.6402 31.7472L16.5016 31.6486L16.4882 31.6312L16.4816 31.6046L16.5042 31.0339L16.5096 31.0206C16.5167 31.0117 16.5273 31.009 16.5416 31.0126L16.6362 31.0606L16.6549 31.0659L16.6816 31.0606L16.7762 31.0139Z" fill="#58CF48"/>
<path d="M17.1256 30.8632L17.1442 30.8606C17.1576 30.8632 17.1665 30.873 17.1709 30.8899L17.2162 31.7086L17.2109 31.7272C17.202 31.7388 17.1891 31.7423 17.1722 31.7379L16.9042 31.6152L16.8936 31.6046L16.8869 31.5886L16.8629 31.0152L16.8669 31.0006L16.8802 30.9872L17.1256 30.8632Z" fill="#58CF48"/>
<path d="M16.1713 30.86C16.178 30.8585 16.185 30.8597 16.1909 30.8632L16.4362 30.9859L16.4496 30.9992L16.4536 31.0152L16.4296 31.5886L16.4256 31.6032L16.4122 31.6139L16.1442 31.7379L16.1242 31.7406C16.11 31.7352 16.1025 31.7246 16.1016 31.7086L16.1469 30.8899L16.1549 30.8712C16.1587 30.8655 16.1646 30.8615 16.1713 30.86Z" fill="#58CF48"/>
<path fill-rule="evenodd" clip-rule="evenodd" d="M21.0161 5.33398C21.7588 5.33401 22.4869 5.54083 23.1187 5.93128C23.7505 6.32172 24.2611 6.88037 24.5934 7.54465L26.4414 11.2393C26.7667 11.106 27.0867 10.962 27.4014 10.8073C27.7179 10.6492 28.0842 10.6234 28.4198 10.7354C28.7553 10.8474 29.0327 11.0882 29.1907 11.4047C29.3488 11.7211 29.3747 12.0875 29.2626 12.423C29.1506 12.7586 28.9099 13.0359 28.5934 13.194C28.2729 13.3366 27.9506 13.4753 27.6267 13.61L28.9081 16.174C29.1862 16.7299 29.3309 17.343 29.3307 17.9647V21.334C29.3307 21.8968 29.212 22.4532 28.9822 22.9669C28.7524 23.4807 28.4169 23.9401 27.9974 24.3153V26.0007C27.9974 26.5311 27.7867 27.0398 27.4116 27.4149C27.0365 27.7899 26.5278 28.0007 25.9974 28.0007C25.467 28.0007 24.9583 27.7899 24.5832 27.4149C24.2081 27.0398 23.9974 26.5311 23.9974 26.0007V25.334H7.9974V26.0007C7.9974 26.5311 7.78668 27.0398 7.41161 27.4149C7.03654 27.7899 6.52783 28.0007 5.9974 28.0007C5.46696 28.0007 4.95826 27.7899 4.58318 27.4149C4.20811 27.0398 3.9974 26.5311 3.9974 26.0007V24.3153C3.17873 23.582 2.66406 22.518 2.66406 21.334V17.9633C2.66431 17.3426 2.80902 16.7304 3.08673 16.1753L4.3574 13.6313C4.03562 13.4962 3.71784 13.3509 3.40406 13.1953C3.08917 13.0352 2.84981 12.7577 2.73757 12.4228C2.62534 12.0878 2.64922 11.7222 2.80406 11.4047C2.88227 11.2479 2.99061 11.1081 3.12288 10.9932C3.25516 10.8783 3.40877 10.7907 3.57494 10.7352C3.74112 10.6797 3.9166 10.6575 4.09135 10.6699C4.2661 10.6823 4.4367 10.729 4.5934 10.8073C4.90895 10.9629 5.22895 11.1069 5.5534 11.2393L7.4014 7.54598C7.73346 6.88146 8.24402 6.32253 8.87586 5.93184C9.5077 5.54115 10.2359 5.33413 10.9787 5.33398H21.0161ZM9.9974 17.334C9.46696 17.334 8.95825 17.5447 8.58318 17.9198C8.20811 18.2948 7.9974 18.8036 7.9974 19.334C7.9974 19.8644 8.20811 20.3731 8.58318 20.7482C8.95825 21.1233 9.46696 21.334 9.9974 21.334C10.5278 21.334 11.0365 21.1233 11.4116 20.7482C11.7867 20.3731 11.9974 19.8644 11.9974 19.334C11.9974 18.8036 11.7867 18.2948 11.4116 17.9198C11.0365 17.5447 10.5278 17.334 9.9974 17.334ZM21.9974 17.334C21.467 17.334 20.9583 17.5447 20.5832 17.9198C20.2081 18.2948 19.9974 18.8036 19.9974 19.334C19.9974 19.8644 20.2081 20.3731 20.5832 20.7482C20.9583 21.1233 21.467 21.334 21.9974 21.334C22.5278 21.334 23.0365 21.1233 23.4116 20.7482C23.7867 20.3731 23.9974 19.8644 23.9974 19.334C23.9974 18.8036 23.7867 18.2948 23.4116 17.9198C23.0365 17.5447 22.5278 17.334 21.9974 17.334ZM21.0161 8.00065H10.9787C10.7593 8.00062 10.5432 8.05475 10.3497 8.15826C10.1562 8.26176 9.99119 8.41143 9.8694 8.59398L9.78673 8.73798L8.0934 12.122C10.1574 12.7407 12.9387 13.334 15.9974 13.334C18.8534 13.334 21.4654 12.8166 23.4774 12.2446L23.9001 12.122L22.2081 8.73798C22.1099 8.54174 21.9649 8.37274 21.7858 8.24598C21.6067 8.11922 21.3991 8.03862 21.1814 8.01132L21.0174 8.00065H21.0161Z" fill="#111111"/>
</svg>
